<?xml version="1.0" encoding="UTF-8" standalone="no"?>
<!-- Created with Inkscape (http://www.inkscape.org/) -->

<svg
   width="32"
   height="32"
   viewBox="0 0 32 32"
   version="1.1"
   id="svg1"
   xmlns="http://www.w3.org/2000/svg"
   xmlns:svg="http://www.w3.org/2000/svg">
  <defs
     id="defs1" />
  <g
     id="layer1">
    <path
       d="m 14.880437,2.6471577 c -1.232912,0 -2.225473,0.9925614 -2.225473,2.2254737 V 6.5765097 C 11.488261,6.9951003 10.409406,7.6266434 9.4732316,8.4390399 L 8.1605498,7.6805533 C 7.7935165,7.4686465 7.3934533,7.3721177 7,7.380636 6.248862,7.3968981 5.5246327,7.7948461 5.1200833,8.4955462 L 4.0073464,10.423276 c -0.6164561,1.067733 -0.2527406,2.421837 0.8149928,3.038293 l 1.3300683,0.76718 C 6.042,14.812836 5.9838152,15.405593 5.9785424,16 c 0.00585,0.611446 0.067683,1.221071 0.1847317,1.821238 L 4.6875937,18.673177 C 3.6198604,19.289633 3.2561448,20.64591 3.872601,21.713643 l 1.1127368,1.925556 c 0.6164561,1.067733 1.9727332,1.431449 3.0404666,0.814993 l 1.4887197,-0.858459 c 0.9266039,0.795652 1.9909319,1.415098 3.1404399,1.827757 v 1.703879 c 0,1.232912 0.992561,2.225473 2.225473,2.225473 h 2.225474 c 1.232912,0 2.225474,-0.992561 2.225474,-2.225473 V 25.42349 c 1.133292,-0.407064 2.18388,-1.015183 3.101319,-1.795157 l 1.662585,0.960605 c 1.067734,0.616456 2.424011,0.254913 3.040467,-0.81282 l 1.112737,-1.92773 c 0.616456,-1.067733 0.25274,-2.42401 -0.814993,-3.040467 L 25.810035,17.871224 C 25.934539,17.255071 26.000756,16.628566 26.007806,16 c -0.0011,-0.613224 -0.05862,-1.225047 -0.171692,-1.827757 l 1.46264,-0.84542 c 1.067734,-0.616456 1.431449,-1.972733 0.814993,-3.040466 L 27.00101,8.3608006 C 26.384554,7.2930673 25.028277,6.9293517 23.960544,7.5458079 L 22.497903,8.3890538 C 21.563668,7.5898834 20.490267,6.9695648 19.331385,6.5591232 V 4.8726314 c 0,-1.2329123 -0.992562,-2.2254737 -2.225474,-2.2254737 z m 1.112737,8.9018953 c 0.294248,0.0014 0.587632,0.03198 0.875845,0.09128 0.953823,0.191258 1.818721,0.689738 2.462366,1.419175 0.406735,0.462339 0.713112,1.004047 0.899752,1.590865 0.140034,0.436234 0.211875,0.891474 0.212985,1.34963 -0.0091,0.491042 -0.09945,0.977189 -0.267318,1.438734 -0.184085,0.542429 -0.471142,1.044226 -0.845419,1.477854 -0.663615,0.757775 -1.564641,1.268049 -2.555818,1.447427 -0.257719,0.05203 -0.51954,0.08112 -0.782393,0.08693 -0.290829,-0.0043 -0.58054,-0.03702 -0.864979,-0.0978 -0.960004,-0.193716 -1.829317,-0.698652 -2.473231,-1.43656 -0.35721,-0.414374 -0.634965,-0.891052 -0.81934,-1.406135 C 11.65088,17.027819 11.551597,16.516699 11.542227,16 c 0.0091,-0.491042 0.09944,-0.977189 0.267317,-1.438734 0.184086,-0.542429 0.471143,-1.044226 0.84542,-1.477854 0.623656,-0.719393 1.461558,-1.21985 2.390646,-1.427867 0.31113,-0.06933 0.628807,-0.105028 0.947564,-0.106492 z"
       style="fill:#ffffff;fill-opacity:1;stroke:#ffffff;stroke-width:1.11274;stroke-linecap:round;stroke-linejoin:round;stroke-dasharray:none;stroke-opacity:1"
       id="path4" />
  </g>
</svg>
