<!--
author: joshxvii
 -->
<svg xmlns="http://www.w3.org/2000/svg" width="64" height="64" viewBox="0 0 64 64">
  <circle cx="31.999" cy="30.452" r="15.621" style="fill:var(--alt1-color);fill-opacity:1;stroke-linecap:round;stroke-linejoin:round"/>
  <path d="M47.494 39.746a15.493 8.427 0 0 1-7.747 7.298 15.493 8.427 0 0 1-15.493 0 15.493 8.427 0 0 1-7.747-7.298" style="fill:var(--alt1-color);fill-opacity:1;stroke-width:1.01386;stroke-linecap:round;stroke-linejoin:round"/>
  <path d="M5.631 25.981c-1.716 1.004-2.5 2.994-1.267 5.663 1.204 2.459 4.525 2.51 6.89 2.932 1.957.35 1.26-4.848.101-6.828-1.159-1.98-4.008-2.771-5.724-1.767zm36.741 0c1.716 1.004 2.5 2.994 1.268 5.663-1.204 2.459-4.526 2.51-6.89 2.932-1.957.35-1.26-4.848-.101-6.828 1.158-1.98 4.008-2.771 5.723-1.767z" style="fill:var(--alt1-color);fill-opacity:1;stroke-linecap:round;stroke-linejoin:round" transform="translate(7.999 6.452)"/>
  <path d="M19.97 27.038c0 1.254-1.044 2.27-2.334 2.27-1.289 0-2.334-1.016-2.334-2.27 0-1.253 1.045-2.27 2.334-2.27 1.29 0 2.335 1.017 2.335 2.27zm8.063 0c0 1.254 1.045 2.27 2.334 2.27 1.29 0 2.334-1.016 2.334-2.27 0-1.253-1.045-2.27-2.334-2.27-1.289 0-2.334 1.017-2.334 2.27z" style="fill:var(--alt2-color);fill-opacity:1;stroke-linecap:round;stroke-linejoin:round" transform="translate(7.999 6.452)"/>
  <path d="M35.856 39.319A3.991 3.732 0 0 1 32 42.085a3.991 3.732 0 0 1-3.855-2.766" style="fill:none;fill-opacity:1;stroke:var(--alt2-color);stroke-width:1.8;stroke-linecap:round;stroke-linejoin:round;stroke-dasharray:none;stroke-opacity:1"/>
  <path d="m24 8.379.002 11.993-3.926-3.296-3.307 3.045-3.03-2.58s-2.842 1.786-3.423 9.1l-2.769-.975S6.62 8.38 24 8.38zm.004 0-.002 11.993 3.926-3.296 3.307 3.045 3.03-2.58s2.841 1.786 3.423 9.1l2.768-.975S41.384 8.38 24.004 8.38z" style="fill:var(--alt2-color);fill-opacity:1;stroke-width:1.09415;stroke-linecap:round;stroke-linejoin:round" transform="translate(7.995 6.452)"/>
</svg>
