<?xml version="1.0" encoding="UTF-8" standalone="no"?>
<!-- Created with Inkscape (http://www.inkscape.org/) -->

<svg
   width="32"
   height="32"
   viewBox="0 0 32 32"
   version="1.1"
   id="svg1"
   xmlns="http://www.w3.org/2000/svg"
   xmlns:svg="http://www.w3.org/2000/svg">
  <defs
     id="defs1" />
  <g
     id="layer1">
    <path
       d="m 15.802734,24.611328 c -0.802245,0 -1.479706,0.269585 -2.03125,0.808594 -0.551544,0.539009 -0.826171,1.20443 -0.826171,1.99414 0,0.889992 0.281624,1.584534 0.845703,2.085938 0.576614,0.488869 1.247078,0.734375 2.011718,0.734375 0.739571,0 1.390999,-0.250549 1.955078,-0.751953 0.56408,-0.501404 0.845704,-1.190903 0.845704,-2.06836 0,-0.78971 -0.269585,-1.455131 -0.808594,-1.99414 -0.539009,-0.539009 -1.202477,-0.808594 -1.992188,-0.808594 z"
       style="font-size:38.5078px;font-family:'Arial Rounded MT Bold';-inkscape-font-specification:'Arial Rounded MT Bold, ';stroke:none;stroke-width:11.5523"
       id="path5" />
    <path
       d="m 16.253906,1.765625 c -1.955474,0 -3.666207,0.4028323 -5.132812,1.2050781 C 9.654488,3.772949 8.5380781,4.787186 7.7734375,6.015625 7.0087969,7.2315289 6.6269531,8.4341663 6.6269531,9.625 c 0,0.576614 0.2385103,1.115784 0.7148438,1.617188 0.4888685,0.488868 1.0831911,0.734375 1.7851562,0.734375 1.1908339,0 1.9995879,-0.708535 2.4257809,-2.1250005 0.451264,-1.3537899 1.002472,-2.3750231 1.654297,-3.0644531 0.651825,-0.7019651 1.668015,-1.0527344 3.046875,-1.0527344 1.178299,0 2.137383,0.3437731 2.876953,1.0332031 0.752106,0.6894301 1.126953,1.5362552 1.126953,2.5390625 0,0.5139388 -0.124298,0.9890064 -0.375,1.4277344 -0.238166,0.438728 -0.538826,0.84156 -0.902343,1.205078 -0.350983,0.350983 -0.928223,0.87616 -1.730469,1.578125 -0.915062,0.802246 -1.642632,1.498741 -2.181641,2.087891 -0.539009,0.576614 -0.970962,1.254074 -1.296875,2.03125 -0.325912,0.76464 -0.488281,1.671661 -0.488281,2.724609 0,0.839851 0.219475,1.474198 0.658203,1.900391 0.451264,0.426193 1.002472,0.638672 1.654297,0.638672 1.253509,0 2.000115,-0.651429 2.238281,-1.955079 0.137886,-0.614219 0.238106,-1.04113 0.300782,-1.279296 0.07521,-0.250702 0.17543,-0.494256 0.300781,-0.732422 0.125351,-0.250702 0.311798,-0.520287 0.5625,-0.808594 0.263237,-0.300842 0.608963,-0.646568 1.035156,-1.035156 1.541816,-1.37886 2.608116,-2.355027 3.197266,-2.931641 0.601684,-0.589149 1.114822,-1.285645 1.541015,-2.08789 0.438729,-0.802246 0.658203,-1.735299 0.658203,-2.8007817 0,-1.3537899 -0.381843,-2.6084904 -1.146484,-3.7617188 C 23.531098,4.3545841 22.457801,3.4456098 21.066406,2.78125 19.675011,2.1043551 18.071495,1.765625 16.253906,1.765625 Z"
       style="font-size:38.5078px;font-family:'Arial Rounded MT Bold';-inkscape-font-specification:'Arial Rounded MT Bold, ';stroke:none;stroke-width:11.5523"
       id="path4" />
  </g>
</svg>
